<?xml version="1.0" encoding="UTF-8" standalone="no"?><!DOCTYPE svg PUBLIC "-//W3C//DTD SVG 1.1//EN" "http://www.w3.org/Graphics/SVG/1.1/DTD/svg11.dtd"><!-- Generated by graphviz version 2.40.1 (20161225.0304)
 --><!-- Title: classes_todo_app Pages: 1 --><svg xmlns="http://www.w3.org/2000/svg" xmlns:xlink="http://www.w3.org/1999/xlink" width="744pt" height="218pt" viewBox="0.00 0.00 743.54 217.80">
<g id="graph0" class="graph" transform="scale(1 1) rotate(0) translate(4 213.8)">
<title>classes_todo_app</title>
<polygon fill="#ffffff" stroke="transparent" points="-4,4 -4,-213.8 739.54,-213.8 739.54,4 -4,4"/>
<!-- todo_app.flask_config.Config -->
<g id="node1" class="node">
<title>todo_app.flask_config.Config</title>
<polygon fill="none" stroke="#000000" points="0,-67.7 0,-142.1 173.8584,-142.1 173.8584,-67.7 0,-67.7"/>
<text text-anchor="start" x="67.4853" y="-125.5" font-family="Times,serif" font-size="14.00" fill="#000000">Config</text>
<polyline fill="none" stroke="#000000" points="0,-117.3 173.8584,-117.3 "/>
<text text-anchor="start" x="8" y="-100.7" font-family="Times,serif" font-size="14.00" fill="#000000">SECRET_KEY : NoneType</text>
<polyline fill="none" stroke="#000000" points="0,-92.5 173.8584,-92.5 "/>
<text text-anchor="start" x="85.1792" y="-75.9" font-family="Times,serif" font-size="14.00" fill="#000000"> </text>
</g>
<!-- todo_app.data.classes.Item.Item -->
<g id="node2" class="node">
<title>todo_app.data.classes.Item.Item</title>
<polygon fill="none" stroke="#000000" points="191.7412,-50.9 191.7412,-158.9 370.1172,-158.9 370.1172,-50.9 191.7412,-50.9"/>
<text text-anchor="start" x="263.101" y="-142.3" font-family="Times,serif" font-size="14.00" fill="#000000">Item</text>
<polyline fill="none" stroke="#000000" points="191.7412,-134.1 370.1172,-134.1 "/>
<text text-anchor="start" x="235.1052" y="-117.5" font-family="Times,serif" font-size="14.00" fill="#000000">id</text>
<text text-anchor="start" x="235.1052" y="-100.7" font-family="Times,serif" font-size="14.00" fill="#000000">name</text>
<text text-anchor="start" x="235.1052" y="-83.9" font-family="Times,serif" font-size="14.00" fill="#000000">status : TODO</text>
<polyline fill="none" stroke="#000000" points="191.7412,-75.7 370.1172,-75.7 "/>
<text text-anchor="start" x="199.7412" y="-59.1" font-family="Times,serif" font-size="14.00" fill="#000000">from_cosmos_db_item(item)</text>
</g>
<!-- todo_app.data.classes.Item.ItemStatus -->
<g id="node3" class="node">
<title>todo_app.data.classes.Item.ItemStatus</title>
<polygon fill="none" stroke="#000000" points="377.9895,-67.7 377.9895,-142.1 453.8689,-142.1 453.8689,-67.7 377.9895,-67.7"/>
<text text-anchor="start" x="385.9895" y="-125.5" font-family="Times,serif" font-size="14.00" fill="#000000">ItemStatus</text>
<polyline fill="none" stroke="#000000" points="377.9895,-117.3 453.8689,-117.3 "/>
<text text-anchor="start" x="400.7693" y="-100.7" font-family="Times,serif" font-size="14.00" fill="#000000">name</text>
<polyline fill="none" stroke="#000000" points="377.9895,-92.5 453.8689,-92.5 "/>
<text text-anchor="start" x="414.1792" y="-75.9" font-family="Times,serif" font-size="14.00" fill="#000000"> </text>
</g>
<!-- todo_app.data.cosmos_db_items.CosmosDbService -->
<g id="node4" class="node">
<title>todo_app.data.cosmos_db_items.CosmosDbService</title>
<polygon fill="none" stroke="#000000" points="471.9909,-50.5 471.9909,-209.3 631.8675,-209.3 631.8675,-50.5 471.9909,-50.5"/>
<text text-anchor="start" x="513.8359" y="-192.7" font-family="Times,serif" font-size="14.00" fill="#000000">CosmosDbService</text>
<polyline fill="none" stroke="#000000" points="471.9909,-184.5 631.8675,-184.5 "/>
<text text-anchor="start" x="479.9909" y="-167.9" font-family="Times,serif" font-size="14.00" fill="#000000">client : NoneType</text>
<text text-anchor="start" x="479.9909" y="-151.1" font-family="Times,serif" font-size="14.00" fill="#000000">db : NoneType</text>
<text text-anchor="start" x="479.9909" y="-134.3" font-family="Times,serif" font-size="14.00" fill="#000000">collection : NoneType</text>
<polyline fill="none" stroke="#000000" points="471.9909,-125.7 631.8675,-125.7 "/>
<text text-anchor="start" x="504.8899" y="-105.1" font-family="Times,serif" font-size="14.00" fill="#000000">add_item(title)</text>
<text text-anchor="start" x="504.8899" y="-90.3" font-family="Times,serif" font-size="14.00" fill="#000000">get_items()</text>
<text text-anchor="start" x="504.8899" y="-75.5" font-family="Times,serif" font-size="14.00" fill="#000000">remove_item(id)</text>
<text text-anchor="start" x="504.8899" y="-60.7" font-family="Times,serif" font-size="14.00" fill="#000000">update_item(id)</text>
</g>
<!-- todo_app.data.classes.ViewModel.ViewModel -->
<g id="node5" class="node">
<title>todo_app.data.classes.ViewModel.ViewModel</title>
<polygon fill="none" stroke="#000000" points="650.3184,-50.9 650.3184,-158.9 735.54,-158.9 735.54,-50.9 650.3184,-50.9"/>
<text text-anchor="start" x="659.4951" y="-142.3" font-family="Times,serif" font-size="14.00" fill="#000000">ViewModel</text>
<polyline fill="none" stroke="#000000" points="650.3184,-134.1 735.54,-134.1 "/>
<text text-anchor="start" x="658.3184" y="-117.5" font-family="Times,serif" font-size="14.00" fill="#000000">done_items</text>
<text text-anchor="start" x="658.3184" y="-100.7" font-family="Times,serif" font-size="14.00" fill="#000000">items</text>
<text text-anchor="start" x="658.3184" y="-83.9" font-family="Times,serif" font-size="14.00" fill="#000000">to_do_items</text>
<polyline fill="none" stroke="#000000" points="650.3184,-75.7 735.54,-75.7 "/>
<text text-anchor="start" x="691.1792" y="-59.1" font-family="Times,serif" font-size="14.00" fill="#000000"> </text>
</g>
</g>
</svg>