<?xml version="1.0" encoding="UTF-8" standalone="no"?><!DOCTYPE svg PUBLIC "-//W3C//DTD SVG 1.1//EN" "http://www.w3.org/Graphics/SVG/1.1/DTD/svg11.dtd"><!-- Generated by graphviz version 2.40.1 (20161225.0304)
 --><!-- Title: packages_todo_app Pages: 1 --><svg xmlns="http://www.w3.org/2000/svg" xmlns:xlink="http://www.w3.org/1999/xlink" width="824pt" height="188pt" viewBox="0.00 0.00 823.93 188.00">
<g id="graph0" class="graph" transform="scale(1 1) rotate(0) translate(4 184)">
<title>packages_todo_app</title>
<polygon fill="#ffffff" stroke="transparent" points="-4,4 -4,-184 819.9282,-184 819.9282,4 -4,4"/>
<!-- todo_app -->
<g id="node1" class="node">
<title>todo_app</title>
<polygon fill="none" stroke="#000000" points="243.936,-36 175.7254,-36 175.7254,0 243.936,0 243.936,-36"/>
<text text-anchor="middle" x="209.8307" y="-13.8" font-family="Times,serif" font-size="14.00" fill="#000000">todo_app</text>
</g>
<!-- todo_app.app -->
<g id="node2" class="node">
<title>todo_app.app</title>
<polygon fill="none" stroke="#000000" points="353.6507,-36 262.0107,-36 262.0107,0 353.6507,0 353.6507,-36"/>
<text text-anchor="middle" x="307.8307" y="-13.8" font-family="Times,serif" font-size="14.00" fill="#000000">todo_app.app</text>
</g>
<!-- todo_app.data.classes.ViewModel -->
<g id="node6" class="node">
<title>todo_app.data.classes.ViewModel</title>
<polygon fill="none" stroke="#000000" points="207.4924,-108 .169,-108 .169,-72 207.4924,-72 207.4924,-108"/>
<text text-anchor="middle" x="103.8307" y="-85.8" font-family="Times,serif" font-size="14.00" fill="#000000">todo_app.data.classes.ViewModel</text>
</g>
<!-- todo_app.app&#45;&gt;todo_app.data.classes.ViewModel -->
<g id="edge1" class="edge">
<title>todo_app.app-&gt;todo_app.data.classes.ViewModel</title>
<path fill="none" stroke="#000000" d="M261.7948,-34.248C233.0403,-44.3966 195.6917,-57.5785 164.5307,-68.5765"/>
<polygon fill="#000000" stroke="#000000" points="155.075,-71.9138 163.0072,-64.342 159.79,-70.2496 164.5049,-68.5855 164.5049,-68.5855 164.5049,-68.5855 159.79,-70.2496 166.0026,-72.829 155.075,-71.9138 155.075,-71.9138"/>
</g>
<!-- todo_app.data.trello_items -->
<g id="node8" class="node">
<title>todo_app.data.trello_items</title>
<polygon fill="none" stroke="#000000" points="390.634,-108 225.0274,-108 225.0274,-72 390.634,-72 390.634,-108"/>
<text text-anchor="middle" x="307.8307" y="-85.8" font-family="Times,serif" font-size="14.00" fill="#000000">todo_app.data.trello_items</text>
</g>
<!-- todo_app.app&#45;&gt;todo_app.data.trello_items -->
<g id="edge2" class="edge">
<title>todo_app.app-&gt;todo_app.data.trello_items</title>
<path fill="none" stroke="#000000" d="M307.8307,-36.1686C307.8307,-43.869 307.8307,-53.0257 307.8307,-61.5834"/>
<polygon fill="#000000" stroke="#000000" points="307.8307,-71.5867 303.3308,-61.5867 307.8307,-66.5867 307.8308,-61.5867 307.8308,-61.5867 307.8308,-61.5867 307.8307,-66.5867 312.3308,-61.5868 307.8307,-71.5867 307.8307,-71.5867"/>
</g>
<!-- todo_app.flask_config -->
<g id="node9" class="node">
<title>todo_app.flask_config</title>
<polygon fill="none" stroke="#000000" points="549.4127,-108 408.2487,-108 408.2487,-72 549.4127,-72 549.4127,-108"/>
<text text-anchor="middle" x="478.8307" y="-85.8" font-family="Times,serif" font-size="14.00" fill="#000000">todo_app.flask_config</text>
</g>
<!-- todo_app.app&#45;&gt;todo_app.flask_config -->
<g id="edge3" class="edge">
<title>todo_app.app-&gt;todo_app.flask_config</title>
<path fill="none" stroke="#000000" d="M350.9812,-36.1686C373.9531,-45.841 402.3816,-57.8109 426.5939,-68.0056"/>
<polygon fill="#000000" stroke="#000000" points="435.9905,-71.962 425.0278,-72.2287 431.3823,-70.0217 426.7741,-68.0814 426.7741,-68.0814 426.7741,-68.0814 431.3823,-70.0217 428.5204,-63.934 435.9905,-71.962 435.9905,-71.962"/>
</g>
<!-- todo_app.data -->
<g id="node3" class="node">
<title>todo_app.data</title>
<polygon fill="none" stroke="#000000" points="466.2557,-36 371.4057,-36 371.4057,0 466.2557,0 466.2557,-36"/>
<text text-anchor="middle" x="418.8307" y="-13.8" font-family="Times,serif" font-size="14.00" fill="#000000">todo_app.data</text>
</g>
<!-- todo_app.data.classes -->
<g id="node4" class="node">
<title>todo_app.data.classes</title>
<polygon fill="none" stroke="#000000" points="621.6242,-36 484.0372,-36 484.0372,0 621.6242,0 621.6242,-36"/>
<text text-anchor="middle" x="552.8307" y="-13.8" font-family="Times,serif" font-size="14.00" fill="#000000">todo_app.data.classes</text>
</g>
<!-- todo_app.data.classes.Item -->
<g id="node5" class="node">
<title>todo_app.data.classes.Item</title>
<polygon fill="none" stroke="#000000" points="289.2809,-180 122.3805,-180 122.3805,-144 289.2809,-144 289.2809,-180"/>
<text text-anchor="middle" x="205.8307" y="-157.8" font-family="Times,serif" font-size="14.00" fill="#000000">todo_app.data.classes.Item</text>
</g>
<!-- todo_app.data.classes.ViewModel&#45;&gt;todo_app.data.classes.Item -->
<g id="edge4" class="edge">
<title>todo_app.data.classes.ViewModel-&gt;todo_app.data.classes.Item</title>
<path fill="none" stroke="#000000" d="M129.5696,-108.1686C142.3744,-117.2073 158.0216,-128.2524 171.8026,-137.9802"/>
<polygon fill="#000000" stroke="#000000" points="180.1,-143.8372 169.3352,-141.7467 176.0152,-140.9537 171.9303,-138.0703 171.9303,-138.0703 171.9303,-138.0703 176.0152,-140.9537 174.5254,-134.3939 180.1,-143.8372 180.1,-143.8372"/>
</g>
<!-- todo_app.data.session_items -->
<g id="node7" class="node">
<title>todo_app.data.session_items</title>
<polygon fill="none" stroke="#000000" points="816.0258,-36 639.6356,-36 639.6356,0 816.0258,0 816.0258,-36"/>
<text text-anchor="middle" x="727.8307" y="-13.8" font-family="Times,serif" font-size="14.00" fill="#000000">todo_app.data.session_items</text>
</g>
<!-- todo_app.data.trello_items&#45;&gt;todo_app.data.classes.Item -->
<g id="edge5" class="edge">
<title>todo_app.data.trello_items-&gt;todo_app.data.classes.Item</title>
<path fill="none" stroke="#000000" d="M282.0918,-108.1686C269.287,-117.2073 253.6398,-128.2524 239.8588,-137.9802"/>
<polygon fill="#000000" stroke="#000000" points="231.5614,-143.8372 237.136,-134.3939 235.6462,-140.9537 239.7311,-138.0703 239.7311,-138.0703 239.7311,-138.0703 235.6462,-140.9537 242.3262,-141.7467 231.5614,-143.8372 231.5614,-143.8372"/>
</g>
</g>
</svg>