<?xml version="1.0" encoding="UTF-8" standalone="no"?><!DOCTYPE svg PUBLIC "-//W3C//DTD SVG 1.1//EN" "http://www.w3.org/Graphics/SVG/1.1/DTD/svg11.dtd"><!-- Generated by graphviz version 2.40.1 (20161225.0304)
 --><!-- Title: packages_todo_app Pages: 1 --><svg xmlns="http://www.w3.org/2000/svg" xmlns:xlink="http://www.w3.org/1999/xlink" width="530pt" height="116pt" viewBox="0.00 0.00 529.75 116.00">
<g id="graph0" class="graph" transform="scale(1 1) rotate(0) translate(4 112)">
<title>packages_todo_app</title>
<polygon fill="#ffffff" stroke="transparent" points="-4,4 -4,-112 525.749,-112 525.749,4 -4,4"/>
<!-- todo_app -->
<g id="node1" class="node">
<title>todo_app</title>
<polygon fill="none" stroke="#000000" points="104.7568,-36 36.5462,-36 36.5462,0 104.7568,0 104.7568,-36"/>
<text text-anchor="middle" x="70.6515" y="-13.8" font-family="Times,serif" font-size="14.00" fill="#000000">todo_app</text>
</g>
<!-- todo_app.app -->
<g id="node2" class="node">
<title>todo_app.app</title>
<polygon fill="none" stroke="#000000" points="214.4715,-36 122.8315,-36 122.8315,0 214.4715,0 214.4715,-36"/>
<text text-anchor="middle" x="168.6515" y="-13.8" font-family="Times,serif" font-size="14.00" fill="#000000">todo_app.app</text>
</g>
<!-- todo_app.data.trello_items -->
<g id="node5" class="node">
<title>todo_app.data.trello_items</title>
<polygon fill="none" stroke="#000000" points="165.4548,-108 -.1518,-108 -.1518,-72 165.4548,-72 165.4548,-108"/>
<text text-anchor="middle" x="82.6515" y="-85.8" font-family="Times,serif" font-size="14.00" fill="#000000">todo_app.data.trello_items</text>
</g>
<!-- todo_app.app&#45;&gt;todo_app.data.trello_items -->
<g id="edge1" class="edge">
<title>todo_app.app-&gt;todo_app.data.trello_items</title>
<path fill="none" stroke="#000000" d="M146.9501,-36.1686C136.4594,-44.9515 123.706,-55.6288 112.3321,-65.1511"/>
<polygon fill="#000000" stroke="#000000" points="104.346,-71.8372 109.1249,-61.9674 108.1798,-68.6275 112.0136,-65.4178 112.0136,-65.4178 112.0136,-65.4178 108.1798,-68.6275 114.9023,-68.8682 104.346,-71.8372 104.346,-71.8372"/>
</g>
<!-- todo_app.flask_config -->
<g id="node6" class="node">
<title>todo_app.flask_config</title>
<polygon fill="none" stroke="#000000" points="324.2335,-108 183.0695,-108 183.0695,-72 324.2335,-72 324.2335,-108"/>
<text text-anchor="middle" x="253.6515" y="-85.8" font-family="Times,serif" font-size="14.00" fill="#000000">todo_app.flask_config</text>
</g>
<!-- todo_app.app&#45;&gt;todo_app.flask_config -->
<g id="edge2" class="edge">
<title>todo_app.app-&gt;todo_app.flask_config</title>
<path fill="none" stroke="#000000" d="M190.1006,-36.1686C200.4693,-44.9515 213.0744,-55.6288 224.3161,-65.1511"/>
<polygon fill="#000000" stroke="#000000" points="232.2093,-71.8372 221.6702,-68.8074 228.394,-68.6054 224.5788,-65.3737 224.5788,-65.3737 224.5788,-65.3737 228.394,-68.6054 227.4874,-61.94 232.2093,-71.8372 232.2093,-71.8372"/>
</g>
<!-- todo_app.data -->
<g id="node3" class="node">
<title>todo_app.data</title>
<polygon fill="none" stroke="#000000" points="327.0765,-36 232.2265,-36 232.2265,0 327.0765,0 327.0765,-36"/>
<text text-anchor="middle" x="279.6515" y="-13.8" font-family="Times,serif" font-size="14.00" fill="#000000">todo_app.data</text>
</g>
<!-- todo_app.data.session_items -->
<g id="node4" class="node">
<title>todo_app.data.session_items</title>
<polygon fill="none" stroke="#000000" points="521.8466,-36 345.4564,-36 345.4564,0 521.8466,0 521.8466,-36"/>
<text text-anchor="middle" x="433.6515" y="-13.8" font-family="Times,serif" font-size="14.00" fill="#000000">todo_app.data.session_items</text>
</g>
</g>
</svg>